<?xml version="1.0" ?><svg data-name="Lovely Valentine's day" height="64" id="Lovely_Valentine_s_day" viewBox="0 0 64 64" width="64" xmlns="http://www.w3.org/2000/svg"><defs><style>.cls-1{fill:#e29e9a;}.cls-2{fill:#f6e3a6;}.cls-3{fill:#623905;}.cls-4{fill:#fff0cc;}.cls-5{fill:#268484;}.cls-6{fill:#d26274;}</style></defs><title/><circle class="cls-1" cx="32" cy="32" r="28"/><path class="cls-2" d="M23,12H41a2,2,0,0,1,2,2V52a0,0,0,0,1,0,0H21a0,0,0,0,1,0,0V14A2,2,0,0,1,23,12Z"/><path class="cls-3" d="M43,53H21a1,1,0,0,1-1-1V14a3,3,0,0,1,3-3H41a3,3,0,0,1,3,3V52A1,1,0,0,1,43,53ZM22,51H42V14a1,1,0,0,0-1-1H23a1,1,0,0,0-1,1Z"/><rect class="cls-4" height="18" rx="2" transform="translate(64) rotate(90)" width="36" x="14" y="23"/><rect class="cls-5" height="5" width="5" x="25" y="24"/><path class="cls-3" d="M30,30H25a1,1,0,0,1-1-1V24a1,1,0,0,1,1-1h5a1,1,0,0,1,1,1v5A1,1,0,0,1,30,30Zm-4-2h3V25H26Z"/><rect class="cls-5" height="5" width="5" x="34" y="24"/><path class="cls-3" d="M39,30H34a1,1,0,0,1-1-1V24a1,1,0,0,1,1-1h5a1,1,0,0,1,1,1v5A1,1,0,0,1,39,30Zm-4-2h3V25H35Z"/><rect class="cls-5" height="5" width="5" x="25" y="33"/><path class="cls-3" d="M30,39H25a1,1,0,0,1-1-1V33a1,1,0,0,1,1-1h5a1,1,0,0,1,1,1v5A1,1,0,0,1,30,39Zm-4-2h3V34H26Z"/><rect class="cls-5" height="5" width="5" x="34" y="33"/><path class="cls-3" d="M39,39H34a1,1,0,0,1-1-1V33a1,1,0,0,1,1-1h5a1,1,0,0,1,1,1v5A1,1,0,0,1,39,39Zm-4-2h3V34H35Z"/><rect class="cls-6" height="10" width="8" x="28" y="42"/><path class="cls-3" d="M36,53H28a1,1,0,0,1-1-1V42a1,1,0,0,1,1-1h8a1,1,0,0,1,1,1V52A1,1,0,0,1,36,53Zm-7-2h6V43H29Z"/><path class="cls-6" d="M27.818,17.534a1.925,1.925,0,0,0,.572,1.379l1.379,1.379,1.418,1.421a.972.972,0,0,0,1.38,0l1.417-1.421,1.3-1.3a2.025,2.025,0,0,0,.289-2.582,1.953,1.953,0,0,0-2.972-.252l-.728.729-.644-.644a2.045,2.045,0,0,0-2.466-.375A1.924,1.924,0,0,0,27.818,17.534Z"/><path class="cls-3" d="M31.876,23a1.96,1.96,0,0,1-1.4-.58l-2.8-2.8a2.943,2.943,0,0,1,.569-4.612,3.021,3.021,0,0,1,3.624.463l.022-.023a2.955,2.955,0,0,1,4.491.374A3.037,3.037,0,0,1,36,19.7L33.275,22.42A1.963,1.963,0,0,1,31.876,23Zm-2.147-6.4a.866.866,0,0,0-.449.12.942.942,0,0,0-.189,1.475l2.8,2.81,2.686-2.727a1.036,1.036,0,0,0,.184-1.292.954.954,0,0,0-.7-.4.941.941,0,0,0-.75.274l-.728.729a1,1,0,0,1-1.414,0l-.644-.644A1.149,1.149,0,0,0,29.729,16.6Z"/><path class="cls-5" d="M25,49.5a2.5,2.5,0,0,1-2,2.45,2.734,2.734,0,0,1-.5.05h-8a2.734,2.734,0,0,1-.5-.05,2.5,2.5,0,1,1,2-4.45,2.5,2.5,0,0,1,5,0,2.5,2.5,0,0,1,4,2Z"/><path class="cls-3" d="M22.5,53h-8a3.685,3.685,0,0,1-.686-.067A3.5,3.5,0,1,1,15.3,46.092a3.5,3.5,0,0,1,6.408,0A3.5,3.5,0,1,1,23.2,52.931,3.745,3.745,0,0,1,22.5,53Zm-8-5a1.5,1.5,0,0,0-.3,2.97,1.735,1.735,0,0,0,.3.03h8a1.8,1.8,0,0,0,.314-.032A1.5,1.5,0,1,0,21.6,48.3a1,1,0,0,1-1.6-.8,1.5,1.5,0,0,0-3,0,1,1,0,0,1-1.6.8A1.49,1.49,0,0,0,14.5,48Z"/><path class="cls-5" d="M52,49.5a2.5,2.5,0,0,1-2,2.45,2.734,2.734,0,0,1-.5.05h-8a2.734,2.734,0,0,1-.5-.05,2.5,2.5,0,1,1,2-4.45,2.5,2.5,0,0,1,5,0,2.5,2.5,0,0,1,4,2Z"/><path class="cls-3" d="M49.5,53h-8a3.685,3.685,0,0,1-.686-.067A3.5,3.5,0,1,1,42.3,46.092a3.5,3.5,0,0,1,6.408,0A3.5,3.5,0,1,1,50.2,52.931,3.745,3.745,0,0,1,49.5,53Zm-8-5a1.5,1.5,0,0,0-.3,2.97,1.735,1.735,0,0,0,.3.03h8a1.8,1.8,0,0,0,.314-.032A1.5,1.5,0,1,0,48.6,48.3a1,1,0,0,1-1.6-.8,1.5,1.5,0,0,0-3,0,1,1,0,0,1-1.6.8A1.49,1.49,0,0,0,41.5,48Z"/></svg>